<svg><path fill="#00000" preserveAspectRatio="none" fillOpacity="1" d="M0,256L10,266.7C20,277,40,299,60,256C80,213,100,107,120,90.7C140,75,160,149,180,170.7C200,192,220,160,240,128C260,96,280,64,300,48C320,32,340,32,360,53.3C380,75,400,117,420,112C440,107,460,53,480,26.7C500,0,520,0,540,26.7C560,53,580,107,600,154.7C620,203,640,245,660,240C680,235,700,181,720,181.3C740,181,760,235,780,261.3C800,288,820,288,840,250.7C860,213,880,139,900,106.7C920,75,940,85,960,128C980,171,1000,245,1020,261.3C1040,277,1060,235,1080,218.7C1100,203,1120,213,1140,181.3C1160,149,1180,75,1200,69.3C1220,64,1240,128,1260,144C1280,160,1300,128,1320,144C1340,160,1360,224,1380,245.3C1400,267,1420,245,1430,234.7L1440,224L1440,0L1430,0C1420,0,1400,0,1380,0C1360,0,1340,0,1320,0C1300,0,1280,0,1260,0C1240,0,1220,0,1200,0C1180,0,1160,0,1140,0C1120,0,1100,0,1080,0C1060,0,1040,0,1020,0C1000,0,980,0,960,0C940,0,920,0,900,0C880,0,860,0,840,0C820,0,800,0,780,0C760,0,740,0,720,0C700,0,680,0,660,0C640,0,620,0,600,0C580,0,560,0,540,0C520,0,500,0,480,0C460,0,440,0,420,0C400,0,380,0,360,0C340,0,320,0,300,0C280,0,260,0,240,0C220,0,200,0,180,0C160,0,140,0,120,0C100,0,80,0,60,0C40,0,20,0,10,0L0,0Z"></path>
</svg>